<svg height="1em" style="flex:none;line-height:1" viewBox="0 0 24 24" width="1em" xmlns="http://www.w3.org/2000/svg"><title>Llama</title><path d="M19.884 18.524c-.139-.51-.222-.793-.319-.977-.17-.327-.422-.472-.777-.538 0 0-.173-.02-.516-.073a.457.457 0 01-.347-.261c-.3-.637-.607-1.358-.75-1.783a.465.465 0 01-.02-.217c.16-.916.265-2.05.265-3.316 0-4.473-1.95-7.592-4.47-8.736a4.105 4.105 0 00-.325-.137c-.244-.091-.353-.14-.417-.172-.065-.032-.174-.09-.316-.24-.43-.453-.812-1.073-.812-1.073s-.083.807-.23 1.114c-.066.138-.153.243-.353.35a3.7 3.7 0 00-.36.224C7.88 4.397 6.244 7.41 6.244 11.359c0 1.309.113 2.479.286 3.423a.466.466 0 01-.023.223c-.149.431-.466 1.174-.774 1.827a.457.457 0 01-.35.257c-.338.05-.508.07-.508.07-.355.066-.606.21-.777.538-.097.184-.18.467-.319.977-.076.28-.049.444.147.533.515.236 1.702.548 3.005.548.363 0 .671-.19.872-.435.201-.245.359-.55.498-.857.145-.32.266-.654.372-.945a.455.455 0 01.332-.299c.614-.143 1.355-.343 2.027-.721a.455.455 0 01.438.001c.68.384 1.432.585 2.05.727a.455.455 0 01.33.296c.105.289.226.621.37.939.139.306.297.611.497.856.201.245.51.435.871.435 1.304 0 2.49-.312 3.006-.548.196-.09.223-.253.147-.533zM10.16 10.2a.96.96 0 110-1.92.96.96 0 010 1.92zm4.64 0a.96.96 0 110-1.92.96.96 0 010 1.92z" fill="#0467DF" fill-rule="nonzero"></path></svg>
